<?xml version="1.0" encoding="iso-8859-1"?>
<!-- Generator: Adobe Illustrator 16.0.0, SVG Export Plug-In . SVG Version: 6.00 Build 0)  -->
<!DOCTYPE svg PUBLIC "-//W3C//DTD SVG 1.1//EN" "http://www.w3.org/Graphics/SVG/1.1/DTD/svg11.dtd">
<svg version="1.1" id="Capa_1" xmlns="http://www.w3.org/2000/svg" xmlns:xlink="http://www.w3.org/1999/xlink" x="0px" y="0px"
	 width="92.451px" height="92.452px" viewBox="0 0 92.451 92.452" style="enable-background:new 0 0 92.451 92.452;"
	 xml:space="preserve">
<g>
	<path fill="#fff" d="M65.348,31.346l21.488-0.021l5.615-10.428H72.764c-6.377,0.246-13.514,0.396-18.477,5.025
		c-5.725,4.331-7.074,13.847-15.145,14.896c-6.988,0.772-14.072,0.151-21.104,0.312c-2.143,3.237-4.082,6.611-6.184,9.881
		l26.15,0.001c-2.305,3.966-4.908,9.078-9.924,9.924c-7.203,0.997-14.512-0.011-21.746,0.515C3.699,64.431,2.025,68.12,0,71.516
		c7.889,0.011,15.787,0.086,23.686-0.012c7.203-0.172,14.941-2.81,18.885-9.238c3.012-4.009,5.252-10.011,10.952-10.577
		c7.084-0.58,14.224-0.044,21.338-0.301l6.132-10.01l-25.97,0.021C57.739,37.508,60.053,32.075,65.348,31.346z"/>
</g>
<g>
</g>
<g>
</g>
<g>
</g>
<g>
</g>
<g>
</g>
<g>
</g>
<g>
</g>
<g>
</g>
<g>
</g>
<g>
</g>
<g>
</g>
<g>
</g>
<g>
</g>
<g>
</g>
<g>
</g>
</svg>
